<mxfile host="app.diagrams.net" modified="2022-08-28T00:40:42.359Z" agent="5.0 (Macintosh; Intel Mac OS X 10_15_7) AppleWebKit/605.1.15 (KHTML, like Gecko) Version/15.6.1 Safari/605.1.15" etag="Nr9Wdpd5mjRmSTHPuVDH" version="20.2.7" type="github">
  <diagram id="mcuaa7pDDj5RCvpF9DL_" name="Página-1">
    <mxGraphModel dx="786" dy="1160" grid="1" gridSize="10" guides="1" tooltips="1" connect="1" arrows="1" fold="1" page="1" pageScale="1" pageWidth="827" pageHeight="1169" math="0" shadow="0">
      <root>
        <mxCell id="0" />
        <mxCell id="1" parent="0" />
        <mxCell id="jJHtOs-BmDE4ESWyDOf9-1" value="Usuario" style="shape=umlActor;verticalLabelPosition=bottom;verticalAlign=top;html=1;outlineConnect=0;fillColor=#dae8fc;strokeColor=#6c8ebf;" vertex="1" parent="1">
          <mxGeometry x="110" y="340" width="30" height="60" as="geometry" />
        </mxCell>
        <mxCell id="jJHtOs-BmDE4ESWyDOf9-2" value="Sistema de monitoreo ABC" style="rounded=0;whiteSpace=wrap;html=1;fillColor=#dae8fc;strokeColor=#6c8ebf;" vertex="1" parent="1">
          <mxGeometry x="296" y="330" width="176" height="110" as="geometry" />
        </mxCell>
        <mxCell id="jJHtOs-BmDE4ESWyDOf9-3" value="System" style="text;html=1;strokeColor=none;fillColor=none;align=center;verticalAlign=middle;whiteSpace=wrap;rounded=0;" vertex="1" parent="1">
          <mxGeometry x="354" y="330" width="60" height="30" as="geometry" />
        </mxCell>
        <mxCell id="jJHtOs-BmDE4ESWyDOf9-7" value="Sistema de mensajes de texto" style="rounded=0;whiteSpace=wrap;html=1;fillColor=#d5e8d4;strokeColor=#82b366;" vertex="1" parent="1">
          <mxGeometry x="550" y="170" width="176" height="110" as="geometry" />
        </mxCell>
        <mxCell id="jJHtOs-BmDE4ESWyDOf9-8" value="System" style="text;html=1;strokeColor=none;fillColor=none;align=center;verticalAlign=middle;whiteSpace=wrap;rounded=0;" vertex="1" parent="1">
          <mxGeometry x="608" y="170" width="60" height="30" as="geometry" />
        </mxCell>
        <mxCell id="jJHtOs-BmDE4ESWyDOf9-10" value="" style="endArrow=none;html=1;rounded=0;entryX=1;entryY=0.25;entryDx=0;entryDy=0;exitX=0;exitY=0.25;exitDx=0;exitDy=0;" edge="1" parent="1" source="jJHtOs-BmDE4ESWyDOf9-7" target="jJHtOs-BmDE4ESWyDOf9-2">
          <mxGeometry width="50" height="50" relative="1" as="geometry">
            <mxPoint x="380" y="610" as="sourcePoint" />
            <mxPoint x="430" y="560" as="targetPoint" />
          </mxGeometry>
        </mxCell>
        <mxCell id="jJHtOs-BmDE4ESWyDOf9-12" value="" style="endArrow=none;html=1;rounded=0;exitX=0.5;exitY=0.5;exitDx=0;exitDy=0;exitPerimeter=0;entryX=0;entryY=0.25;entryDx=0;entryDy=0;" edge="1" parent="1" source="jJHtOs-BmDE4ESWyDOf9-1" target="jJHtOs-BmDE4ESWyDOf9-2">
          <mxGeometry width="50" height="50" relative="1" as="geometry">
            <mxPoint x="380" y="610" as="sourcePoint" />
            <mxPoint x="430" y="560" as="targetPoint" />
          </mxGeometry>
        </mxCell>
        <mxCell id="jJHtOs-BmDE4ESWyDOf9-13" value="Sistema notificaciones" style="rounded=0;whiteSpace=wrap;html=1;fillColor=#d5e8d4;strokeColor=#82b366;" vertex="1" parent="1">
          <mxGeometry x="580" y="350" width="176" height="110" as="geometry" />
        </mxCell>
        <mxCell id="jJHtOs-BmDE4ESWyDOf9-14" value="" style="endArrow=none;html=1;rounded=0;entryX=1;entryY=0.5;entryDx=0;entryDy=0;exitX=0;exitY=0.25;exitDx=0;exitDy=0;" edge="1" parent="1" source="jJHtOs-BmDE4ESWyDOf9-13" target="jJHtOs-BmDE4ESWyDOf9-2">
          <mxGeometry width="50" height="50" relative="1" as="geometry">
            <mxPoint x="540" y="297.5" as="sourcePoint" />
            <mxPoint x="482" y="367.5" as="targetPoint" />
          </mxGeometry>
        </mxCell>
        <mxCell id="jJHtOs-BmDE4ESWyDOf9-15" value="System" style="text;html=1;strokeColor=none;fillColor=none;align=center;verticalAlign=middle;whiteSpace=wrap;rounded=0;" vertex="1" parent="1">
          <mxGeometry x="638" y="350" width="60" height="30" as="geometry" />
        </mxCell>
        <mxCell id="jJHtOs-BmDE4ESWyDOf9-16" value="Sistema de emergencias" style="rounded=0;whiteSpace=wrap;html=1;fillColor=#d5e8d4;strokeColor=#82b366;" vertex="1" parent="1">
          <mxGeometry x="530" y="540" width="176" height="110" as="geometry" />
        </mxCell>
        <mxCell id="jJHtOs-BmDE4ESWyDOf9-17" value="" style="endArrow=none;html=1;rounded=0;entryX=0.75;entryY=1;entryDx=0;entryDy=0;exitX=0;exitY=0.25;exitDx=0;exitDy=0;" edge="1" parent="1" source="jJHtOs-BmDE4ESWyDOf9-16" target="jJHtOs-BmDE4ESWyDOf9-2">
          <mxGeometry width="50" height="50" relative="1" as="geometry">
            <mxPoint x="472" y="510" as="sourcePoint" />
            <mxPoint x="414" y="467.5" as="targetPoint" />
          </mxGeometry>
        </mxCell>
        <mxCell id="jJHtOs-BmDE4ESWyDOf9-18" value="System" style="text;html=1;strokeColor=none;fillColor=none;align=center;verticalAlign=middle;whiteSpace=wrap;rounded=0;" vertex="1" parent="1">
          <mxGeometry x="588" y="540" width="60" height="30" as="geometry" />
        </mxCell>
        <mxCell id="jJHtOs-BmDE4ESWyDOf9-19" value="Operador" style="shape=umlActor;verticalLabelPosition=bottom;verticalAlign=top;html=1;outlineConnect=0;fillColor=#dae8fc;strokeColor=#6c8ebf;" vertex="1" parent="1">
          <mxGeometry x="324" y="500" width="30" height="60" as="geometry" />
        </mxCell>
        <mxCell id="jJHtOs-BmDE4ESWyDOf9-21" value="" style="endArrow=none;html=1;rounded=0;exitX=0.25;exitY=1;exitDx=0;exitDy=0;entryX=0.5;entryY=0;entryDx=0;entryDy=0;entryPerimeter=0;" edge="1" parent="1" source="jJHtOs-BmDE4ESWyDOf9-2" target="jJHtOs-BmDE4ESWyDOf9-19">
          <mxGeometry width="50" height="50" relative="1" as="geometry">
            <mxPoint x="140" y="510" as="sourcePoint" />
            <mxPoint x="311" y="497.5" as="targetPoint" />
          </mxGeometry>
        </mxCell>
        <mxCell id="jJHtOs-BmDE4ESWyDOf9-22" value="Sistema de ubicación GPS" style="rounded=0;whiteSpace=wrap;html=1;fillColor=#d5e8d4;strokeColor=#82b366;" vertex="1" parent="1">
          <mxGeometry x="293" y="110" width="182" height="110" as="geometry" />
        </mxCell>
        <mxCell id="jJHtOs-BmDE4ESWyDOf9-23" value="System" style="text;html=1;strokeColor=none;fillColor=none;align=center;verticalAlign=middle;whiteSpace=wrap;rounded=0;" vertex="1" parent="1">
          <mxGeometry x="354" y="110" width="60" height="30" as="geometry" />
        </mxCell>
        <mxCell id="jJHtOs-BmDE4ESWyDOf9-24" value="" style="endArrow=none;html=1;rounded=0;entryX=0.5;entryY=0;entryDx=0;entryDy=0;exitX=0.5;exitY=1;exitDx=0;exitDy=0;" edge="1" parent="1" source="jJHtOs-BmDE4ESWyDOf9-22" target="jJHtOs-BmDE4ESWyDOf9-3">
          <mxGeometry width="50" height="50" relative="1" as="geometry">
            <mxPoint x="478" y="240" as="sourcePoint" />
            <mxPoint x="420" y="310" as="targetPoint" />
          </mxGeometry>
        </mxCell>
      </root>
    </mxGraphModel>
  </diagram>
</mxfile>
